<?xml version="1.0" standalone="no"?>
<!DOCTYPE svg PUBLIC "-//W3C//DTD SVG 20010904//EN"
 "http://www.w3.org/TR/2001/REC-SVG-20010904/DTD/svg10.dtd">
<svg version="1.0" xmlns="http://www.w3.org/2000/svg"
 width="1604.000000pt" height="1604.000000pt" viewBox="0 0 1604.000000 1604.000000"
 preserveAspectRatio="xMidYMid meet">
<metadata>
Created by potrace 1.14, written by Peter Selinger 2001-2017
</metadata>
<g transform="translate(0.000000,1604.000000) scale(0.100000,-0.100000)"
fill="#000000" stroke="none">
<path d="M2079 10483 c-106 -26 -210 -74 -367 -170 -29 -18 -57 -33 -62 -33
-6 0 -10 -4 -10 -10 0 -5 -9 -10 -19 -10 -11 0 -21 -4 -23 -8 -3 -7 -128 -81
-153 -91 -5 -2 -17 -9 -25 -16 -8 -7 -40 -26 -70 -42 -62 -34 -120 -67 -165
-94 -16 -10 -41 -24 -55 -32 -14 -7 -41 -23 -61 -34 -20 -12 -47 -27 -60 -35
-13 -7 -26 -15 -29 -18 -3 -3 -18 -12 -35 -20 -16 -8 -53 -28 -80 -45 -28 -16
-59 -35 -70 -42 -41 -24 -329 -189 -364 -208 -20 -10 -37 -23 -39 -27 -2 -4
-8 -8 -14 -8 -18 0 -137 -100 -181 -153 -77 -91 -145 -212 -161 -287 -4 -14
-13 -54 -21 -90 -12 -55 -15 -211 -14 -1012 0 -521 3 -949 7 -952 4 -2 9 -19
10 -36 3 -45 55 -173 99 -249 51 -85 162 -199 248 -254 59 -37 300 -178 450
-262 22 -13 145 -84 274 -159 129 -75 236 -136 238 -136 3 0 17 -8 31 -19 15
-10 48 -30 75 -45 85 -47 130 -73 307 -175 96 -56 180 -101 187 -101 7 0 13
-4 13 -10 0 -5 3 -9 8 -8 4 2 21 -2 37 -8 107 -39 169 -49 300 -47 151 3 274
43 455 149 50 30 283 164 320 185 14 8 28 18 31 22 3 5 10 9 15 9 5 1 18 6 29
13 11 6 43 25 72 42 28 17 61 34 72 38 12 3 21 11 21 16 0 5 4 9 10 9 5 0 33
14 62 31 58 35 84 50 173 100 33 18 62 37 63 41 2 4 8 8 13 8 10 0 429 240
529 303 76 48 185 153 226 217 16 25 33 48 39 52 5 4 6 8 1 8 -5 0 -2 8 6 18
48 57 105 281 99 392 -2 47 -1 114 3 118 3 2 1 15 -4 28 -5 13 -6 25 -2 28 4
2 6 22 5 43 -5 62 -4 123 2 133 3 5 1 11 -5 15 -6 4 -8 11 -4 16 3 6 5 200 4
432 -1 458 -1 489 5 495 2 2 -1 17 -5 33 -5 16 -5 31 -2 33 4 2 6 19 5 38 -4
66 -4 84 -4 133 0 54 1 75 3 103 1 25 -10 144 -16 172 -3 14 -8 36 -10 50 -8
45 -49 150 -57 150 -5 0 -9 6 -9 14 0 25 -97 160 -147 207 -73 66 -112 99
-119 99 -3 0 -25 14 -49 30 -24 17 -47 30 -50 30 -9 0 -146 80 -166 97 -9 7
-19 10 -22 6 -4 -3 -7 -1 -7 5 0 7 -4 12 -9 12 -5 0 -71 37 -147 81 -77 45
-164 95 -194 112 -30 17 -67 38 -82 49 -14 10 -28 18 -31 18 -3 0 -38 19 -79
43 -180 106 -223 132 -228 132 -3 0 -16 8 -30 17 -36 23 -138 81 -310 179 -52
29 -97 56 -100 59 -8 9 -121 56 -175 73 -126 39 -273 43 -406 10z"/>
<path d="M5477 9188 c-69 -31 -129 -99 -143 -161 -3 -12 -6 -459 -6 -994 -1
-761 2 -981 12 -1017 16 -56 82 -126 142 -150 39 -15 87 -16 473 -12 237 2
441 6 455 8 14 2 45 8 70 12 312 54 570 230 724 496 52 89 108 234 122 314 2
17 7 38 9 46 13 46 27 206 27 305 0 458 -179 811 -515 1014 -38 22 -86 46
-108 52 -21 7 -39 16 -39 21 0 4 -3 7 -7 6 -5 -1 -35 7 -68 17 -64 20 -65 20
-110 29 -16 3 -41 8 -55 11 -64 14 -153 17 -533 19 -380 2 -410 1 -450 -16z
m674 -467 c7 4 16 6 20 3 5 -2 41 -6 81 -8 203 -10 370 -102 447 -245 17 -33
32 -64 32 -68 1 -5 5 -16 11 -26 9 -17 13 -32 24 -84 2 -13 7 -35 10 -50 4
-16 8 -102 9 -193 6 -284 -42 -447 -167 -570 -109 -107 -243 -144 -521 -144
l-138 1 -31 31 -31 30 1 594 c0 326 1 610 1 630 2 61 35 89 112 97 35 4 78 4
95 0 18 -4 38 -3 45 2z"/>
<path d="M11908 9045 c-2 -2 -23 -5 -48 -8 -53 -7 -41 -2 -76 -34 l-29 -27 -5
-180 -5 -179 -65 -2 c-93 -3 -95 -3 -119 -25 -35 -30 -47 -78 -45 -192 2 -157
28 -190 156 -193 38 -1 70 -4 73 -6 2 -3 5 -226 5 -496 1 -270 4 -494 8 -497
3 -4 7 -13 8 -21 1 -7 7 -30 14 -50 40 -123 129 -208 285 -276 68 -30 311 -43
421 -24 21 4 46 8 54 10 77 12 114 74 96 160 -3 17 -8 41 -11 55 -6 32 -14 68
-21 100 -3 14 -7 32 -9 40 -14 66 -20 70 -125 68 -39 -1 -77 4 -95 13 -59 28
-60 33 -62 497 0 232 2 422 5 423 4 1 57 2 119 3 96 1 115 4 140 22 48 36 54
57 51 196 l-3 128 -32 32 c-32 32 -33 32 -145 35 -62 1 -118 2 -124 3 -8 0
-12 49 -12 163 0 177 -8 213 -55 239 -28 15 -117 27 -117 16 0 -5 -5 -6 -10
-3 -9 5 -51 6 -145 4 -5 -1 -24 1 -42 4 -18 2 -34 3 -35 2z"/>
<path d="M8548 8645 c-2 -3 -47 -7 -99 -9 -456 -21 -768 -319 -816 -781 -10
-99 -6 -226 12 -350 7 -49 51 -178 80 -236 109 -213 291 -361 519 -419 152
-38 280 -42 488 -15 14 1 52 10 83 20 198 57 368 189 470 363 48 81 100 229
110 311 4 30 9 63 11 75 5 28 5 222 -1 266 -4 31 -12 77 -31 160 -3 14 -14 44
-24 68 -10 23 -17 42 -14 42 6 0 -52 104 -90 160 -39 59 -133 149 -202 195
-50 34 -186 97 -234 110 -21 5 -88 19 -102 20 -10 2 -19 3 -20 5 -2 1 -28 3
-59 4 -31 2 -60 6 -66 9 -6 4 -12 4 -15 2z m74 -441 c75 -26 148 -117 181
-224 27 -86 28 -97 32 -230 3 -106 -1 -140 -21 -219 -13 -51 -28 -99 -34 -105
-5 -7 -7 -16 -3 -19 3 -4 1 -7 -5 -7 -7 0 -12 -7 -12 -15 0 -8 -4 -15 -10 -15
-5 0 -10 -5 -10 -11 0 -20 -65 -74 -115 -96 -55 -24 -152 -25 -208 -2 -102 41
-170 146 -203 309 -17 86 -11 297 10 375 61 223 216 324 398 259z"/>
<path d="M10538 8645 c-3 -3 -45 -7 -95 -9 -100 -4 -235 -35 -320 -72 -59 -26
-156 -86 -184 -113 -9 -9 -29 -28 -45 -42 -110 -98 -202 -269 -239 -444 -22
-104 -27 -297 -9 -413 13 -91 55 -230 80 -269 8 -13 12 -23 9 -23 -3 0 17 -34
45 -75 163 -241 407 -364 730 -367 71 -1 187 8 231 18 10 2 29 6 40 9 52 11
140 44 184 68 11 6 29 15 40 21 149 79 294 286 322 456 10 64 7 84 -17 111
-33 36 -62 42 -215 43 -230 2 -250 -6 -306 -120 -56 -116 -135 -168 -254 -168
-128 0 -216 60 -276 188 -15 33 -31 77 -34 96 -45 246 -7 471 97 581 18 20 59
48 92 63 50 24 67 27 129 24 40 -3 88 -11 107 -19 50 -20 104 -79 146 -159 55
-105 55 -105 279 -105 174 0 192 2 217 20 15 11 30 31 34 45 10 32 5 101 -8
117 -5 7 -7 17 -4 22 4 5 2 12 -4 16 -6 4 -8 10 -5 15 3 5 1 11 -5 15 -5 3
-10 15 -10 26 0 10 -4 19 -10 19 -5 0 -10 6 -10 13 0 8 -17 41 -39 74 -123
190 -333 304 -607 329 -38 3 -72 8 -75 10 -3 2 -8 1 -11 -1z"/>
<path d="M13678 8644 c-3 -2 -27 -6 -54 -8 -227 -17 -421 -107 -567 -261 -31
-34 -130 -178 -133 -195 0 -3 -6 -18 -13 -35 -22 -51 -49 -138 -57 -180 -3
-22 -9 -49 -12 -60 -8 -32 -9 -339 -1 -350 4 -5 9 -28 12 -50 3 -22 10 -55 16
-73 5 -18 10 -36 11 -40 1 -4 8 -22 16 -41 8 -18 14 -37 14 -42 0 -4 14 -31
30 -59 17 -28 30 -55 30 -60 0 -6 4 -10 9 -10 5 0 12 -9 16 -20 11 -34 138
-156 211 -203 92 -59 202 -102 309 -123 153 -30 372 -19 515 25 36 11 68 21
72 21 20 2 152 80 202 120 31 25 116 109 116 115 0 3 11 18 25 33 48 51 130
242 150 347 20 106 25 265 12 380 -6 59 -8 71 -22 130 -14 59 -70 202 -85 215
-3 3 -14 22 -25 44 -30 59 -148 179 -223 229 -103 68 -204 108 -337 132 -16 3
-72 8 -124 11 -51 2 -97 6 -101 9 -4 2 -9 2 -12 -1z m107 -429 c183 -33 282
-268 252 -595 -15 -161 -94 -303 -197 -355 -35 -18 -149 -25 -198 -12 -66 18
-140 89 -178 172 -65 141 -77 378 -28 545 27 93 82 174 147 215 30 19 121 44
147 40 8 -1 33 -6 55 -10z"/>
<path d="M15909 8646 c-2 -2 -35 -6 -73 -9 -133 -12 -259 -100 -322 -225 -15
-31 -29 -59 -29 -62 -16 -96 -35 -64 -35 58 -1 59 -1 115 -2 124 -1 10 -17 32
-35 50 l-34 33 -187 1 c-103 1 -197 -2 -210 -7 -29 -11 -55 -38 -68 -69 -6
-16 -10 -309 -9 -815 1 -751 2 -791 19 -818 35 -52 58 -57 257 -57 215 0 241
6 268 65 18 37 19 68 19 490 1 549 2 560 104 658 88 85 176 109 338 92 48 -5
95 11 114 40 23 34 23 352 1 395 -12 24 -43 44 -65 43 -3 0 -15 3 -26 8 -12 4
-24 6 -25 5z"/>
</g>
</svg>
