<svg width="802" height="249" viewBox="0 0 802 249" fill="none" xmlns="http://www.w3.org/2000/svg">
<path fill-rule="evenodd" clip-rule="evenodd" d="M133.016 5.54697C120.64 -1.59834 105.392 -1.59834 93.0163 5.54697L20 47.703C7.62396 54.8483 0 68.0534 0 82.344V166.656C0 180.947 7.62396 194.152 20 201.297L93.0163 243.453C105.392 250.598 120.64 250.598 133.016 243.453L206.033 201.297C218.409 194.152 226.033 180.947 226.033 166.656V82.344C226.033 68.0534 218.409 54.8483 206.033 47.703L133.016 5.54697ZM88.3985 113.838C86.7476 113.229 85.9221 111.859 85.9221 109.727C85.9221 108.509 86.4077 106.15 87.3788 102.648C88.3499 99.0706 88.8355 96.825 88.8355 95.9116C88.8355 93.628 87.6701 92.4862 85.3394 92.4862C82.8145 92.4862 79.1242 93.5899 74.2686 95.7974C69.3158 98.081 65.2856 101.354 62.178 105.617C59.0704 109.804 57.5166 116.122 57.5166 124.571C57.5166 127.692 59.7016 129.366 64.0717 129.595C72.909 130.204 80.8237 130.508 87.8158 130.508C112.774 130.508 132.439 127.311 146.812 120.917C161.282 114.447 168.517 105.274 168.517 93.3996C168.517 87.8428 167.303 83.0092 164.875 78.8987C162.447 74.7121 159.048 71.4389 154.678 69.0792C150.308 66.6433 145.307 64.8545 139.674 63.7127C134.042 62.5709 127.729 62 120.737 62C115.299 62 109.812 62.5709 104.276 63.7127C98.741 64.8545 92.6229 67.1 85.9221 70.4493C79.2213 73.7986 73.2489 78.0994 68.0048 83.3517C65.1885 86.092 63.7804 88.4137 63.7804 90.3167C63.7804 91.763 64.6058 92.4862 66.2568 92.4862C67.2279 92.4862 69.6072 91.3824 73.3946 89.1749C86.1163 82.0196 99.7121 78.442 114.182 78.442C123.408 78.442 130.108 79.8882 134.284 82.7808C138.46 85.5973 140.548 89.3652 140.548 94.0847C140.548 96.825 139.82 99.337 138.363 101.621C137.003 103.904 134.721 106.074 131.517 108.129C128.312 110.184 123.699 111.783 117.678 112.924C111.657 114.066 104.422 114.637 95.9733 114.637C92.6715 114.637 90.1465 114.371 88.3985 113.838ZM65.6741 135.646C61.0127 135.646 58.682 137.626 58.682 141.584C58.682 154.676 63.489 165.371 73.1032 173.668C82.8145 181.889 96.4103 186 113.891 186C122.339 186 130.157 185.01 137.343 183.031C144.627 181.128 150.308 178.845 154.387 176.18C158.563 173.44 161.767 170.814 164.001 168.302C166.234 165.79 167.351 163.735 167.351 162.136C167.351 160.233 166.234 159.282 164.001 159.282C162.933 159.282 161.233 159.815 158.902 160.88C156.669 161.946 154.192 163.126 151.473 164.42C148.851 165.714 145.112 166.894 140.257 167.959C135.401 169.025 130.206 169.558 124.67 169.558C102.626 169.558 89.7095 160.309 85.9221 141.812C85.3394 139.224 84.514 137.549 83.4457 136.788C82.4746 136.027 80.7266 135.646 78.2016 135.646H65.6741Z" fill="white"/>
<path d="M309.933 183H278.384C271.756 183 266.384 177.627 266.384 171V77.1819C266.384 70.5545 271.756 65.1819 278.384 65.1819H309.875C321.88 65.1819 332.215 67.5406 340.883 72.2579C349.589 76.9369 356.301 83.6869 361.018 92.5079C365.735 101.291 368.094 111.799 368.094 124.033C368.094 136.306 365.735 146.853 361.018 155.674C356.339 164.495 349.647 171.264 340.941 175.982C332.235 180.661 321.899 183 309.933 183ZM294.86 153.723C294.86 156.485 297.099 158.723 299.86 158.723H308.84C315.436 158.723 321.017 157.611 325.581 155.386C330.183 153.124 333.654 149.461 335.993 144.399C338.371 139.298 339.56 132.509 339.56 124.033C339.56 115.558 338.371 108.808 335.993 103.783C333.615 98.7209 330.106 95.0775 325.465 92.8531C320.863 90.5903 315.187 89.4589 308.437 89.4589H299.86C297.099 89.4589 294.86 91.6974 294.86 94.4589V153.723Z" fill="white"/>
<path d="M425.968 184.668C416.686 184.668 408.709 182.77 402.036 178.973C395.401 175.138 390.281 169.807 386.676 162.98C383.109 156.115 381.326 148.157 381.326 139.106C381.326 130.016 383.109 122.058 386.676 115.232C390.281 108.367 395.401 103.036 402.036 99.2387C408.709 95.4035 416.686 93.4859 425.968 93.4859C435.249 93.4859 443.207 95.4035 449.842 99.2387C456.515 103.036 461.635 108.367 465.202 115.232C468.807 122.058 470.61 130.016 470.61 139.106C470.61 148.157 468.807 156.115 465.202 162.98C461.635 169.807 456.515 175.138 449.842 178.973C443.207 182.77 435.249 184.668 425.968 184.668ZM426.14 163.44C429.515 163.44 432.372 162.405 434.712 160.334C437.051 158.263 438.835 155.386 440.062 151.705C441.328 148.023 441.96 143.766 441.96 138.933C441.96 134.024 441.328 129.729 440.062 126.047C438.835 122.365 437.051 119.489 434.712 117.418C432.372 115.347 429.515 114.311 426.14 114.311C422.65 114.311 419.697 115.347 417.281 117.418C414.903 119.489 413.081 122.365 411.816 126.047C410.588 129.729 409.975 134.024 409.975 138.933C409.975 143.766 410.588 148.023 411.816 151.705C413.081 155.386 414.903 158.263 417.281 160.334C419.697 162.405 422.65 163.44 426.14 163.44Z" fill="white"/>
<path d="M526.268 184.668C516.949 184.668 508.952 182.751 502.279 178.916C495.644 175.08 490.543 169.749 486.976 162.923C483.41 156.058 481.626 148.119 481.626 139.106C481.626 130.055 483.41 122.116 486.976 115.289C490.582 108.424 495.702 103.074 502.337 99.2387C509.01 95.4035 516.968 93.4859 526.211 93.4859C534.38 93.4859 541.494 94.9624 547.554 97.9156C553.652 100.869 558.408 105.049 561.821 110.457C564.262 114.253 565.887 118.52 566.698 123.256C567.268 126.583 564.501 129.384 561.125 129.384H546.326C543.286 129.384 540.85 127.054 539.793 124.203C538.996 122.053 537.862 120.232 536.393 118.741C533.9 116.171 530.641 114.886 526.614 114.886C523.354 114.886 520.496 115.807 518.042 117.648C515.587 119.45 513.67 122.135 512.289 125.702C510.947 129.23 510.275 133.602 510.275 138.818C510.275 144.034 510.947 148.445 512.289 152.05C513.67 155.617 515.587 158.32 518.042 160.161C520.496 161.964 523.354 162.865 526.614 162.865C529.222 162.865 531.523 162.309 533.517 161.197C535.55 160.085 537.218 158.455 538.522 156.307C539.021 155.47 539.451 154.565 539.809 153.592C540.868 150.724 543.309 148.368 546.366 148.368H561.061C564.461 148.368 567.233 151.206 566.647 154.556C565.812 159.318 564.204 163.622 561.821 167.467C558.484 172.913 553.786 177.151 547.726 180.181C541.705 183.173 534.552 184.668 526.268 184.668Z" fill="white"/>
<path d="M625.56 94.6364C628.873 94.6364 631.56 97.3227 631.56 100.636V109.347C631.56 112.66 628.873 115.347 625.56 115.347H581.815C578.501 115.347 575.815 112.66 575.815 109.347V100.636C575.815 97.3227 578.501 94.6364 581.815 94.6364H625.56ZM587.493 79.466C587.493 76.1523 590.179 73.466 593.493 73.466H609.624C612.938 73.466 615.624 76.1523 615.624 79.466V155.214C615.624 156.94 615.893 158.34 616.43 159.413C617.005 160.449 617.83 161.197 618.904 161.657C619.977 162.079 621.262 162.29 622.758 162.29C623.832 162.29 624.963 162.194 626.152 162.002V162.002C627.666 161.718 629.176 162.68 629.492 164.188L632.025 176.269C632.67 179.349 630.821 182.385 627.758 183.106C627.664 183.128 627.57 183.15 627.475 183.173C625.059 183.748 622.163 184.112 618.788 184.266C612.192 184.573 606.535 183.805 601.818 181.965C597.139 180.085 593.553 177.171 591.06 173.22C588.605 169.27 587.416 164.303 587.493 158.32V79.466Z" fill="white"/>
<path d="M686.212 184.668C676.93 184.668 668.953 182.77 662.28 178.973C655.645 175.138 650.525 169.807 646.92 162.98C643.353 156.115 641.57 148.157 641.57 139.106C641.57 130.016 643.353 122.058 646.92 115.232C650.525 108.367 655.645 103.036 662.28 99.2387C668.953 95.4035 676.93 93.4859 686.212 93.4859C695.493 93.4859 703.451 95.4035 710.086 99.2387C716.759 103.036 721.879 108.367 725.446 115.232C729.051 122.058 730.854 130.016 730.854 139.106C730.854 148.157 729.051 156.115 725.446 162.98C721.879 169.807 716.759 175.138 710.086 178.973C703.451 182.77 695.493 184.668 686.212 184.668ZM686.384 163.44C689.759 163.44 692.617 162.405 694.956 160.334C697.296 158.263 699.079 155.386 700.306 151.705C701.572 148.023 702.205 143.766 702.205 138.933C702.205 134.024 701.572 129.729 700.306 126.047C699.079 122.365 697.296 119.489 694.956 117.418C692.617 115.347 689.759 114.311 686.384 114.311C682.894 114.311 679.941 115.347 677.525 117.418C675.147 119.489 673.325 122.365 672.06 126.047C670.832 129.729 670.219 134.024 670.219 138.933C670.219 143.766 670.832 148.023 672.06 151.705C673.325 155.386 675.147 158.263 677.525 160.334C679.941 162.405 682.894 163.44 686.384 163.44Z" fill="white"/>
<path d="M751.265 183C747.951 183 745.265 180.314 745.265 177V100.636C745.265 97.3227 747.951 94.6364 751.265 94.6364H766.591C769.904 94.6364 772.591 97.3227 772.591 100.636V110.744H773.511C775.122 104.915 777.749 100.581 781.393 97.743C785.036 94.8665 789.274 93.4283 794.106 93.4283C795.41 93.4283 796.753 93.5242 798.133 93.716V93.716C800.448 93.9732 801.988 96.066 801.988 98.395V113.5C801.988 116.153 799.328 118.144 796.695 117.82V117.82C794.547 117.552 792.63 117.418 790.942 117.418C787.606 117.418 784.595 118.166 781.91 119.661C779.264 121.119 777.174 123.171 775.64 125.817C774.144 128.425 773.396 131.493 773.396 135.021V177C773.396 180.314 770.71 183 767.396 183H751.265Z" fill="white"/>
</svg>
