<svg width="802" height="261" viewBox="0 0 802 261" fill="none" xmlns="http://www.w3.org/2000/svg">
<g clip-path="url(#clip0_1412_163)">
<path d="M93.0163 11.547C105.392 4.40169 120.64 4.40169 133.016 11.547L206.033 53.703C218.409 60.8483 226.033 74.0534 226.033 88.344V172.656C226.033 186.947 218.409 200.152 206.033 207.297L133.016 249.453C120.64 256.598 105.392 256.598 93.0163 249.453L20 207.297C7.62396 200.152 0 186.947 0 172.656V88.344C0 74.0534 7.62396 60.8483 20 53.703L93.0163 11.547Z" fill="#3DC28A"/>
<g filter="url(#filter0_d_1412_163)">
<path d="M85.9221 115.727C85.9221 117.859 86.7476 119.229 88.3985 119.838C90.1465 120.371 92.6715 120.637 95.9733 120.637C104.422 120.637 111.657 120.066 117.678 118.924C123.699 117.783 128.312 116.184 131.517 114.129C134.721 112.074 137.003 109.904 138.363 107.621C139.82 105.337 140.548 102.825 140.548 100.085C140.548 95.3653 138.46 91.5973 134.284 88.7808C130.108 85.8883 123.408 84.442 114.182 84.442C99.7121 84.442 86.1163 88.0196 73.3946 95.175C69.6072 97.3824 67.2279 98.4862 66.2568 98.4862C64.6058 98.4862 63.7804 97.763 63.7804 96.3168C63.7804 94.4138 65.1885 92.0921 68.0048 89.3517C73.2489 84.0994 79.2213 79.7986 85.9221 76.4494C92.6229 73.1001 98.741 70.8545 104.276 69.7127C109.812 68.5709 115.299 68 120.737 68C127.729 68 134.042 68.5709 139.674 69.7127C145.307 70.8545 150.308 72.6433 154.678 75.0792C159.048 77.4389 162.447 80.7121 164.875 84.8987C167.303 89.0092 168.517 93.8428 168.517 99.3996C168.517 111.274 161.282 120.447 146.812 126.917C132.439 133.311 112.774 136.508 87.8158 136.508C80.8237 136.508 72.909 136.204 64.0717 135.595C59.7016 135.366 57.5166 133.692 57.5166 130.571C57.5166 122.122 59.0704 115.804 62.178 111.617C65.2856 107.354 69.3158 104.081 74.2686 101.797C79.1242 99.5899 82.8145 98.4862 85.3394 98.4862C87.6701 98.4862 88.8355 99.628 88.8355 101.912C88.8355 102.825 88.3499 105.071 87.3788 108.648C86.4077 112.15 85.9221 114.51 85.9221 115.727ZM58.682 147.584C58.682 143.626 61.0127 141.646 65.6741 141.646H78.2016C80.7266 141.646 82.4746 142.027 83.4457 142.788C84.514 143.549 85.3394 145.224 85.9221 147.812C89.7095 166.309 102.626 175.558 124.67 175.558C130.206 175.558 135.401 175.025 140.257 173.959C145.112 172.894 148.851 171.714 151.473 170.42C154.192 169.126 156.669 167.946 158.902 166.88C161.233 165.815 162.933 165.282 164.001 165.282C166.234 165.282 167.351 166.233 167.351 168.136C167.351 169.735 166.234 171.79 164.001 174.302C161.767 176.814 158.563 179.44 154.387 182.18C150.308 184.845 144.627 187.128 137.343 189.031C130.157 191.01 122.339 192 113.891 192C96.4103 192 82.8145 187.89 73.1032 179.669C63.489 171.371 58.682 160.676 58.682 147.584Z" fill="white"/>
</g>
</g>
<path d="M309.933 189H278.384C271.756 189 266.384 183.627 266.384 177V83.1816C266.384 76.5542 271.756 71.1816 278.384 71.1816H309.875C321.88 71.1816 332.215 73.5403 340.883 78.2576C349.589 82.9366 356.301 89.6866 361.018 98.5076C365.735 107.29 368.094 117.799 368.094 130.033C368.094 142.306 365.735 152.853 361.018 161.674C356.339 170.495 349.647 177.264 340.941 181.981C332.235 186.66 321.899 189 309.933 189ZM294.86 159.723C294.86 162.484 297.099 164.723 299.86 164.723H308.84C315.436 164.723 321.017 163.611 325.581 161.386C330.183 159.123 333.654 155.461 335.993 150.398C338.371 145.297 339.56 138.509 339.56 130.033C339.56 121.557 338.371 114.807 335.993 109.783C333.615 104.721 330.106 101.077 325.465 98.8528C320.863 96.59 315.187 95.4586 308.437 95.4586H299.86C297.099 95.4586 294.86 97.6972 294.86 100.459V159.723Z" fill="#202020"/>
<path d="M425.968 190.668C416.686 190.668 408.709 188.77 402.036 184.973C395.401 181.138 390.281 175.807 386.676 168.98C383.109 162.115 381.326 154.157 381.326 145.106C381.326 136.016 383.109 128.058 386.676 121.231C390.281 114.366 395.401 109.035 402.036 105.238C408.709 101.403 416.686 99.4856 425.968 99.4856C435.249 99.4856 443.207 101.403 449.842 105.238C456.515 109.035 461.635 114.366 465.202 121.231C468.807 128.058 470.61 136.016 470.61 145.106C470.61 154.157 468.807 162.115 465.202 168.98C461.635 175.807 456.515 181.138 449.842 184.973C443.207 188.77 435.249 190.668 425.968 190.668ZM426.14 169.44C429.515 169.44 432.372 168.405 434.712 166.334C437.051 164.263 438.835 161.386 440.062 157.704C441.328 154.023 441.96 149.765 441.96 144.933C441.96 140.024 441.328 135.729 440.062 132.047C438.835 128.365 437.051 125.488 434.712 123.417C432.372 121.346 429.515 120.311 426.14 120.311C422.65 120.311 419.697 121.346 417.281 123.417C414.903 125.488 413.081 128.365 411.816 132.047C410.588 135.729 409.975 140.024 409.975 144.933C409.975 149.765 410.588 154.023 411.816 157.704C413.081 161.386 414.903 164.263 417.281 166.334C419.697 168.405 422.65 169.44 426.14 169.44Z" fill="#202020"/>
<path d="M526.268 190.668C516.949 190.668 508.952 188.751 502.279 184.915C495.644 181.08 490.543 175.749 486.976 168.922C483.41 162.057 481.626 154.118 481.626 145.106C481.626 136.055 483.41 128.116 486.976 121.289C490.582 114.424 495.702 109.074 502.337 105.238C509.01 101.403 516.968 99.4856 526.211 99.4856C534.38 99.4856 541.494 100.962 547.554 103.915C553.652 106.868 558.408 111.049 561.821 116.457C564.262 120.253 565.887 124.519 566.698 129.255C567.268 132.583 564.501 135.383 561.125 135.383H546.326C543.286 135.383 540.85 133.053 539.793 130.203C538.996 128.053 537.862 126.232 536.393 124.741C533.9 122.171 530.641 120.886 526.614 120.886C523.354 120.886 520.496 121.807 518.042 123.648C515.587 125.45 513.67 128.135 512.289 131.702C510.947 135.23 510.275 139.602 510.275 144.818C510.275 150.034 510.947 154.444 512.289 158.05C513.67 161.616 515.587 164.32 518.042 166.161C520.496 167.964 523.354 168.865 526.614 168.865C529.222 168.865 531.523 168.309 533.517 167.197C535.55 166.084 537.218 164.454 538.522 162.307C539.021 161.469 539.451 160.564 539.809 159.592C540.868 156.724 543.309 154.368 546.366 154.368H561.061C564.461 154.368 567.233 157.206 566.647 160.556C565.812 165.318 564.204 169.622 561.821 173.467C558.484 178.913 553.786 183.151 547.726 186.181C541.705 189.172 534.552 190.668 526.268 190.668Z" fill="#202020"/>
<path d="M625.56 100.636C628.873 100.636 631.56 103.322 631.56 106.636V115.346C631.56 118.66 628.873 121.346 625.56 121.346H581.815C578.501 121.346 575.815 118.66 575.815 115.346V106.636C575.815 103.322 578.501 100.636 581.815 100.636H625.56ZM587.493 85.4657C587.493 82.152 590.179 79.4657 593.493 79.4657H609.624C612.938 79.4657 615.624 82.152 615.624 85.4657V161.214C615.624 162.939 615.893 164.339 616.43 165.413C617.005 166.449 617.83 167.197 618.904 167.657C619.977 168.079 621.262 168.29 622.758 168.29C623.832 168.29 624.963 168.194 626.152 168.002V168.002C627.666 167.718 629.176 168.68 629.492 170.188L632.025 182.268C632.67 185.348 630.821 188.385 627.758 189.106C627.664 189.128 627.57 189.15 627.475 189.172C625.059 189.748 622.163 190.112 618.788 190.265C612.192 190.572 606.535 189.805 601.818 187.964C597.139 186.085 593.553 183.17 591.06 179.22C588.605 175.27 587.416 170.303 587.493 164.32V85.4657Z" fill="#202020"/>
<path d="M686.212 190.668C676.93 190.668 668.953 188.77 662.28 184.973C655.645 181.138 650.525 175.807 646.92 168.98C643.353 162.115 641.57 154.157 641.57 145.106C641.57 136.016 643.353 128.058 646.92 121.231C650.525 114.366 655.645 109.035 662.28 105.238C668.953 101.403 676.93 99.4856 686.212 99.4856C695.493 99.4856 703.451 101.403 710.086 105.238C716.759 109.035 721.879 114.366 725.446 121.231C729.051 128.058 730.854 136.016 730.854 145.106C730.854 154.157 729.051 162.115 725.446 168.98C721.879 175.807 716.759 181.138 710.086 184.973C703.451 188.77 695.493 190.668 686.212 190.668ZM686.384 169.44C689.759 169.44 692.617 168.405 694.956 166.334C697.296 164.263 699.079 161.386 700.306 157.704C701.572 154.023 702.205 149.765 702.205 144.933C702.205 140.024 701.572 135.729 700.306 132.047C699.079 128.365 697.296 125.488 694.956 123.417C692.617 121.346 689.759 120.311 686.384 120.311C682.894 120.311 679.941 121.346 677.525 123.417C675.147 125.488 673.325 128.365 672.06 132.047C670.832 135.729 670.219 140.024 670.219 144.933C670.219 149.765 670.832 154.023 672.06 157.704C673.325 161.386 675.147 164.263 677.525 166.334C679.941 168.405 682.894 169.44 686.384 169.44Z" fill="#202020"/>
<path d="M751.265 189C747.951 189 745.265 186.314 745.265 183V106.636C745.265 103.322 747.951 100.636 751.265 100.636H766.591C769.904 100.636 772.591 103.322 772.591 106.636V116.744H773.511C775.122 110.915 777.749 106.581 781.393 103.743C785.036 100.866 789.274 99.4281 794.106 99.4281C795.41 99.4281 796.753 99.524 798.133 99.7157V99.7157C800.448 99.9729 801.988 102.066 801.988 104.395V119.5C801.988 122.153 799.328 124.144 796.695 123.82V123.82C794.547 123.552 792.63 123.417 790.942 123.417C787.606 123.417 784.595 124.165 781.91 125.661C779.264 127.118 777.174 129.17 775.64 131.817C774.144 134.425 773.396 137.493 773.396 141.021V183C773.396 186.314 770.71 189 767.396 189H751.265Z" fill="#202020"/>
<defs>
<filter id="filter0_d_1412_163" x="57.5166" y="68" width="113" height="126" filterUnits="userSpaceOnUse" color-interpolation-filters="sRGB">
<feFlood flood-opacity="0" result="BackgroundImageFix"/>
<feColorMatrix in="SourceAlpha" type="matrix" values="0 0 0 0 0 0 0 0 0 0 0 0 0 0 0 0 0 0 127 0" result="hardAlpha"/>
<feOffset dx="2" dy="2"/>
<feComposite in2="hardAlpha" operator="out"/>
<feColorMatrix type="matrix" values="0 0 0 0 0 0 0 0 0 0 0 0 0 0 0 0 0 0 0.25 0"/>
<feBlend mode="normal" in2="BackgroundImageFix" result="effect1_dropShadow_1412_163"/>
<feBlend mode="normal" in="SourceGraphic" in2="effect1_dropShadow_1412_163" result="shape"/>
</filter>
<clipPath id="clip0_1412_163">
<rect width="226.033" height="261" fill="white"/>
</clipPath>
</defs>
</svg>
